<svg width="182" height="109" viewBox="0 0 182 109" fill="none" xmlns="http://www.w3.org/2000/svg">
<rect x="1" width="181" height="108.701" fill="white"/>
<g clip-path="url(#clip0)">
<path d="M94.125 3.07514C94.125 0.00717556 90.1341 -1.14911 88.3763 1.39421C72.25 24.7301 95.1667 25.7807 95.1667 37.1244C95.1667 41.7174 91.3763 45.4337 86.7227 45.3731C82.1432 45.3151 78.5 41.5356 78.5 37.002V25.9792C78.5 23.1819 75.0534 21.8246 73.1055 23.8523C69.6198 27.4771 66 33.6865 66 41.2494C66 54.8967 77.2148 65.9994 91 65.9994C104.785 65.9994 116 54.8967 116 41.2494C116 19.298 94.125 16.3705 94.125 3.07514Z" fill="url(#paint0_linear)"/>
</g>
<path d="M26.7363 93.2842H18.2988V102H13.9043V80.6719H27.791V84.2314H18.2988V89.7393H26.7363V93.2842ZM35.0127 102H30.6182V80.6719H35.0127V102ZM46.9951 94.1924H43.4941V102H39.0996V80.6719H47.0244C49.5439 80.6719 51.4873 81.2334 52.8545 82.3564C54.2217 83.4795 54.9053 85.0664 54.9053 87.1172C54.9053 88.5723 54.5879 89.7881 53.9531 90.7646C53.3281 91.7314 52.376 92.5029 51.0967 93.0791L55.7109 101.795V102H50.9941L46.9951 94.1924ZM43.4941 90.6328H47.0391C48.1426 90.6328 48.9971 90.3545 49.6025 89.7979C50.208 89.2314 50.5107 88.4551 50.5107 87.4688C50.5107 86.4629 50.2227 85.6719 49.6465 85.0957C49.0801 84.5195 48.2061 84.2314 47.0244 84.2314H43.4941V90.6328ZM71.0918 92.7568H62.6543V98.4697H72.5566V102H58.2598V80.6719H72.5273V84.2314H62.6543V89.3145H71.0918V92.7568ZM86.1943 96.4043C86.1943 95.5742 85.9014 94.9395 85.3154 94.5C84.7295 94.0508 83.6748 93.582 82.1514 93.0938C80.6279 92.5957 79.4219 92.1074 78.5332 91.6289C76.1113 90.3203 74.9004 88.5576 74.9004 86.3408C74.9004 85.1885 75.2227 84.1631 75.8672 83.2646C76.5215 82.3564 77.4541 81.6484 78.665 81.1406C79.8857 80.6328 81.2529 80.3789 82.7666 80.3789C84.29 80.3789 85.6475 80.6572 86.8389 81.2139C88.0303 81.7607 88.9531 82.5371 89.6074 83.543C90.2715 84.5488 90.6035 85.6914 90.6035 86.9707H86.209C86.209 85.9941 85.9014 85.2373 85.2861 84.7002C84.6709 84.1533 83.8066 83.8799 82.6934 83.8799C81.6191 83.8799 80.7842 84.1094 80.1885 84.5684C79.5928 85.0176 79.2949 85.6133 79.2949 86.3555C79.2949 87.0488 79.6416 87.6299 80.335 88.0986C81.0381 88.5674 82.0684 89.0068 83.4258 89.417C85.9258 90.1689 87.7471 91.1016 88.8896 92.2148C90.0322 93.3281 90.6035 94.7148 90.6035 96.375C90.6035 98.2207 89.9053 99.6709 88.5088 100.726C87.1123 101.771 85.2324 102.293 82.8691 102.293C81.2285 102.293 79.7344 101.995 78.3867 101.399C77.0391 100.794 76.0088 99.9688 75.2959 98.9238C74.5928 97.8789 74.2412 96.668 74.2412 95.291H78.6504C78.6504 97.6445 80.0566 98.8213 82.8691 98.8213C83.9141 98.8213 84.7295 98.6113 85.3154 98.1914C85.9014 97.7617 86.1943 97.166 86.1943 96.4043ZM109.646 84.2314H103.113V102H98.7188V84.2314H92.2734V80.6719H109.646V84.2314ZM129.275 91.8193C129.275 93.9189 128.904 95.7598 128.162 97.3418C127.42 98.9238 126.355 100.145 124.969 101.004C123.592 101.863 122.01 102.293 120.223 102.293C118.455 102.293 116.878 101.868 115.491 101.019C114.104 100.169 113.03 98.958 112.269 97.3857C111.507 95.8037 111.121 93.9873 111.111 91.9365V90.8818C111.111 88.7822 111.487 86.9365 112.239 85.3447C113.001 83.7432 114.07 82.5176 115.447 81.668C116.834 80.8086 118.416 80.3789 120.193 80.3789C121.971 80.3789 123.548 80.8086 124.925 81.668C126.312 82.5176 127.381 83.7432 128.133 85.3447C128.895 86.9365 129.275 88.7773 129.275 90.8672V91.8193ZM124.822 90.8525C124.822 88.6162 124.422 86.917 123.621 85.7549C122.82 84.5928 121.678 84.0117 120.193 84.0117C118.719 84.0117 117.581 84.5879 116.78 85.7402C115.979 86.8828 115.574 88.5625 115.564 90.7793V91.8193C115.564 93.9971 115.965 95.6865 116.766 96.8877C117.566 98.0889 118.719 98.6895 120.223 98.6895C121.697 98.6895 122.83 98.1133 123.621 96.9609C124.412 95.7988 124.812 94.1094 124.822 91.8926V90.8525ZM149.212 94.8955C149.046 97.1904 148.196 98.9971 146.663 100.315C145.14 101.634 143.128 102.293 140.628 102.293C137.894 102.293 135.74 101.375 134.168 99.5391C132.605 97.6934 131.824 95.1641 131.824 91.9512V90.6475C131.824 88.5967 132.186 86.79 132.908 85.2275C133.631 83.665 134.661 82.4688 135.999 81.6387C137.347 80.7988 138.909 80.3789 140.687 80.3789C143.147 80.3789 145.13 81.0381 146.634 82.3564C148.138 83.6748 149.007 85.5254 149.241 87.9082H144.847C144.739 86.5312 144.354 85.5352 143.689 84.9199C143.035 84.2949 142.034 83.9824 140.687 83.9824C139.222 83.9824 138.123 84.5098 137.391 85.5645C136.668 86.6094 136.297 88.2354 136.277 90.4424V92.0537C136.277 94.3584 136.624 96.043 137.317 97.1074C138.021 98.1719 139.124 98.7041 140.628 98.7041C141.985 98.7041 142.996 98.3965 143.66 97.7812C144.334 97.1562 144.72 96.1943 144.817 94.8955H149.212ZM158.777 93.4453L156.492 95.9062V102H152.098V80.6719H156.492V90.3398L158.426 87.6885L163.86 80.6719H169.266L161.692 90.1494L169.485 102H164.256L158.777 93.4453Z" fill="url(#paint1_linear)"/>
<defs>
<linearGradient id="paint0_linear" x1="91" y1="-0.000640869" x2="91" y2="65.9994" gradientUnits="userSpaceOnUse">
<stop stop-color="#FFCA2A"/>
<stop offset="1" stop-color="#FFA610"/>
</linearGradient>
<linearGradient id="paint1_linear" x1="91" y1="74" x2="91" y2="109" gradientUnits="userSpaceOnUse">
<stop stop-color="#FFA610"/>
<stop offset="1" stop-color="#F5820C"/>
</linearGradient>
<clipPath id="clip0">
<rect width="50" height="66" fill="white" transform="translate(66)"/>
</clipPath>
</defs>
</svg>
