<svg width="80" height="60" viewBox="0 0 80 60" fill="none" xmlns="http://www.w3.org/2000/svg">
<path d="M71.7768 14.9531C71.8276 15.6093 71.8276 16.2656 71.8276 16.9219C71.8276 36.9374 55.3302 60 25.1778 60C15.8883 60 7.25894 57.5155 0 53.2032C1.31985 53.3437 2.58876 53.3906 3.95939 53.3906C11.6243 53.3906 18.6802 51.0001 24.3148 46.9219C17.1066 46.7813 11.066 42.4219 8.98472 36.4219C10 36.5624 11.0152 36.6562 12.0813 36.6562C13.5533 36.6562 15.0255 36.4686 16.396 36.1407C8.88332 34.7343 3.24861 28.6406 3.24861 21.2812V21.0938C5.43127 22.2188 7.96956 22.9219 10.6597 23.0156C6.24346 20.2967 3.35017 15.6562 3.35017 10.4061C3.35017 7.5937 4.1622 5.01557 5.58362 2.76555C13.6547 11.953 25.7868 17.9529 39.3908 18.6093C39.137 17.4843 38.9847 16.3125 38.9847 15.1406C38.9847 6.7968 46.2944 0 55.3807 0C60.1015 0 64.3654 1.82812 67.3604 4.78125C71.0659 4.12503 74.6192 2.85934 77.7666 1.12501C76.5481 4.64071 73.9594 7.59384 70.5584 9.46871C73.8579 9.14075 77.0559 8.29681 80 7.12505C77.7669 10.1249 74.9748 12.7967 71.7768 14.9531Z" fill="black"/>
</svg>
